<?xml version="1.0" encoding="utf-8" standalone="no"?>
<!DOCTYPE svg PUBLIC "-//W3C//DTD SVG 1.1//EN"
  "http://www.w3.org/Graphics/SVG/1.1/DTD/svg11.dtd">
<svg height="504pt" version="1.1" viewBox="0 0 648 504" width="648pt" xmlns="http://www.w3.org/2000/svg" xmlns:xlink="http://www.w3.org/1999/xlink">
 <metadata>
  <rdf:RDF xmlns:cc="http://creativecommons.org/ns#" xmlns:dc="http://purl.org/dc/elements/1.1/" xmlns:rdf="http://www.w3.org/1999/02/22-rdf-syntax-ns#">
   <cc:Work>
    <dc:type rdf:resource="http://purl.org/dc/dcmitype/StillImage"/>
    <dc:date>2021-09-16T11:09:05.512037</dc:date>
    <dc:format>image/svg+xml</dc:format>
    <dc:creator>
     <cc:Agent>
      <dc:title>Matplotlib v3.4.2, https://matplotlib.org/</dc:title>
     </cc:Agent>
    </dc:creator>
   </cc:Work>
  </rdf:RDF>
 </metadata>
 <defs>
  <style type="text/css">*{stroke-linecap:butt;stroke-linejoin:round;}</style>
 </defs>
 <g id="figure_1">
  <g id="patch_1">
   <path d="M 0 504 
L 648 504 
L 648 0 
L 0 0 
z
" style="fill:#ffffff;"/>
  </g>
  <g id="axes_1">
   <g id="patch_2">
    <path d="M 81 448.56 
L 583.2 448.56 
L 583.2 60.48 
L 81 60.48 
z
" style="fill:#ffffff;"/>
   </g>
   <g id="matplotlib.axis_1">
    <g id="xtick_1">
     <g id="line2d_1">
      <defs>
       <path d="M 0 0 
L 0 3.5 
" id="m8c05fdd2de" style="stroke:#000000;stroke-width:0.8;"/>
      </defs>
      <g>
       <use style="stroke:#000000;stroke-width:0.8;" x="103.827273" xlink:href="#m8c05fdd2de" y="448.56"/>
      </g>
     </g>
     <g id="text_1">
      <!-- 0 -->
      <g transform="translate(99.136648 468.76)scale(0.2 -0.2)">
       <defs>
        <path d="M 1517 4064 
Q 2048 4064 2435 3465 
Q 2822 2867 2822 1978 
Q 2822 1094 2435 496 
Q 2048 -102 1517 -102 
Q 1005 -102 608 490 
Q 211 1082 211 1978 
Q 211 2867 598 3465 
Q 986 4064 1517 4064 
z
M 1517 45 
Q 1990 45 2172 515 
Q 2355 986 2355 1978 
Q 2355 2970 2172 3443 
Q 1990 3917 1517 3917 
Q 1043 3917 860 3443 
Q 678 2970 678 1978 
Q 678 45 1517 45 
z
" id="STKaiti-30" transform="scale(0.015625)"/>
       </defs>
       <use xlink:href="#STKaiti-30"/>
      </g>
     </g>
    </g>
    <g id="xtick_2">
     <g id="line2d_2">
      <g>
       <use style="stroke:#000000;stroke-width:0.8;" x="202.539803" xlink:href="#m8c05fdd2de" y="448.56"/>
      </g>
     </g>
     <g id="text_2">
      <!-- 2000 -->
      <g transform="translate(183.777303 468.76)scale(0.2 -0.2)">
       <defs>
        <path d="M 2726 -19 
Q 2266 0 1421 0 
Q 595 0 141 -19 
Q 262 230 448 454 
Q 634 678 1043 1088 
Q 1638 1683 1913 2102 
Q 2189 2522 2189 2950 
Q 2189 3302 1968 3520 
Q 1747 3738 1421 3738 
Q 1101 3738 838 3517 
Q 576 3296 474 2893 
L 326 2918 
Q 429 3462 755 3763 
Q 1082 4064 1549 4064 
Q 2016 4064 2342 3753 
Q 2669 3443 2669 3008 
Q 2669 2573 2365 2192 
Q 2061 1811 1446 1242 
Q 1120 941 634 339 
L 2138 339 
Q 2381 339 2480 425 
Q 2579 512 2688 800 
L 2822 800 
L 2726 -19 
z
" id="STKaiti-32" transform="scale(0.015625)"/>
       </defs>
       <use xlink:href="#STKaiti-32"/>
       <use x="46.899994" xlink:href="#STKaiti-30"/>
       <use x="93.799988" xlink:href="#STKaiti-30"/>
       <use x="140.699982" xlink:href="#STKaiti-30"/>
      </g>
     </g>
    </g>
    <g id="xtick_3">
     <g id="line2d_3">
      <g>
       <use style="stroke:#000000;stroke-width:0.8;" x="301.252334" xlink:href="#m8c05fdd2de" y="448.56"/>
      </g>
     </g>
     <g id="text_3">
      <!-- 4000 -->
      <g transform="translate(282.489834 468.76)scale(0.2 -0.2)">
       <defs>
        <path d="M 2086 4064 
L 2240 4064 
L 2240 1408 
L 2918 1408 
L 2918 1114 
L 2240 1114 
L 2240 -102 
L 1818 -102 
L 1818 1114 
L 179 1114 
L 179 1325 
L 941 2438 
L 2086 4064 
z
M 1818 1408 
L 1818 3373 
Q 947 2163 486 1408 
L 1818 1408 
z
" id="STKaiti-34" transform="scale(0.015625)"/>
       </defs>
       <use xlink:href="#STKaiti-34"/>
       <use x="46.899994" xlink:href="#STKaiti-30"/>
       <use x="93.799988" xlink:href="#STKaiti-30"/>
       <use x="140.699982" xlink:href="#STKaiti-30"/>
      </g>
     </g>
    </g>
    <g id="xtick_4">
     <g id="line2d_4">
      <g>
       <use style="stroke:#000000;stroke-width:0.8;" x="399.964865" xlink:href="#m8c05fdd2de" y="448.56"/>
      </g>
     </g>
     <g id="text_4">
      <!-- 6000 -->
      <g transform="translate(381.202365 468.76)scale(0.2 -0.2)">
       <defs>
        <path d="M 2458 4083 
L 2509 3962 
Q 1709 3661 1232 2934 
Q 755 2208 755 1376 
Q 755 826 985 432 
Q 1216 38 1549 38 
Q 2266 38 2266 1178 
Q 2266 1658 2080 1926 
Q 1894 2195 1613 2195 
Q 1504 2195 1402 2150 
L 1331 2253 
Q 1536 2342 1747 2342 
Q 2170 2342 2448 2022 
Q 2726 1702 2726 1146 
Q 2726 614 2396 256 
Q 2067 -102 1542 -102 
Q 998 -102 656 323 
Q 314 749 314 1478 
Q 314 2362 893 3088 
Q 1472 3814 2458 4083 
z
" id="STKaiti-36" transform="scale(0.015625)"/>
       </defs>
       <use xlink:href="#STKaiti-36"/>
       <use x="46.899994" xlink:href="#STKaiti-30"/>
       <use x="93.799988" xlink:href="#STKaiti-30"/>
       <use x="140.699982" xlink:href="#STKaiti-30"/>
      </g>
     </g>
    </g>
    <g id="xtick_5">
     <g id="line2d_5">
      <g>
       <use style="stroke:#000000;stroke-width:0.8;" x="498.677396" xlink:href="#m8c05fdd2de" y="448.56"/>
      </g>
     </g>
     <g id="text_5">
      <!-- 8000 -->
      <g transform="translate(479.914896 468.76)scale(0.2 -0.2)">
       <defs>
        <path d="M 1267 1997 
Q 493 2381 493 3040 
Q 493 3437 809 3750 
Q 1126 4064 1555 4064 
Q 2042 4064 2342 3801 
Q 2643 3539 2643 3142 
Q 2643 2797 2451 2585 
Q 2259 2374 1901 2195 
Q 2490 1914 2656 1626 
Q 2822 1338 2822 1050 
Q 2822 582 2473 240 
Q 2125 -102 1606 -102 
Q 1069 -102 749 195 
Q 429 493 429 947 
Q 429 1222 557 1488 
Q 685 1754 1267 1997 
z
M 1760 2272 
Q 2022 2394 2163 2627 
Q 2304 2861 2304 3136 
Q 2304 3475 2109 3696 
Q 1914 3917 1568 3917 
Q 1254 3917 1056 3702 
Q 858 3488 858 3174 
Q 858 3014 915 2860 
Q 973 2707 1232 2528 
Q 1491 2349 1760 2272 
z
M 1421 1926 
Q 1094 1766 953 1532 
Q 813 1299 813 909 
Q 813 518 1037 284 
Q 1261 51 1600 51 
Q 1952 51 2185 284 
Q 2419 518 2419 883 
Q 2419 1267 2185 1497 
Q 1952 1728 1421 1926 
z
" id="STKaiti-38" transform="scale(0.015625)"/>
       </defs>
       <use xlink:href="#STKaiti-38"/>
       <use x="46.899994" xlink:href="#STKaiti-30"/>
       <use x="93.799988" xlink:href="#STKaiti-30"/>
       <use x="140.699982" xlink:href="#STKaiti-30"/>
      </g>
     </g>
    </g>
    <g id="text_6">
     <!-- Step -->
     <g transform="translate(315.11875 491.100625)scale(0.2 -0.2)">
      <defs>
       <path d="M 2406 3053 
Q 2221 3891 1485 3891 
Q 1139 3891 905 3692 
Q 672 3494 672 3226 
Q 672 3014 861 2835 
Q 1050 2656 1645 2349 
Q 2253 2035 2525 1798 
Q 2797 1562 2797 1094 
Q 2797 557 2422 227 
Q 2048 -102 1376 -102 
Q 755 -102 243 198 
L 314 1152 
L 403 1152 
Q 461 678 787 374 
Q 1114 70 1510 70 
Q 1888 70 2147 294 
Q 2406 518 2406 832 
Q 2406 1114 2198 1306 
Q 1990 1498 1510 1747 
Q 845 2093 582 2374 
Q 320 2656 320 3021 
Q 320 3475 672 3769 
Q 1024 4064 1587 4064 
Q 2150 4064 2515 3782 
L 2490 3053 
L 2406 3053 
z
" id="STKaiti-53" transform="scale(0.015625)"/>
       <path d="M 979 3085 
L 1056 3085 
L 1062 2400 
L 1933 2419 
L 1933 2189 
L 1062 2163 
L 1062 640 
Q 1062 352 1142 224 
Q 1222 96 1402 96 
Q 1619 96 1926 275 
L 1984 186 
Q 1850 32 1674 -35 
Q 1498 -102 1197 -102 
Q 864 -102 761 61 
Q 659 224 659 704 
L 659 2150 
L 314 2144 
Q 224 2144 224 2195 
Q 224 2240 307 2278 
Q 582 2394 707 2544 
Q 832 2694 979 3085 
z
" id="STKaiti-74" transform="scale(0.015625)"/>
       <path d="M 2477 1606 
L 691 1606 
Q 672 1478 672 1350 
Q 672 851 944 537 
Q 1216 224 1683 224 
Q 1907 224 2092 313 
Q 2278 403 2496 608 
L 2522 454 
Q 2074 -102 1363 -102 
Q 896 -102 582 275 
Q 269 653 269 1190 
Q 269 1779 617 2166 
Q 966 2554 1504 2554 
Q 1914 2554 2186 2294 
Q 2458 2035 2477 1606 
z
M 723 1741 
L 1888 1741 
Q 2061 1741 2061 1875 
Q 2061 2010 1933 2208 
Q 1805 2406 1478 2406 
Q 1197 2406 992 2224 
Q 787 2042 723 1741 
z
" id="STKaiti-65" transform="scale(0.015625)"/>
       <path d="M 890 2157 
Q 1446 2554 1965 2554 
Q 2445 2554 2739 2211 
Q 3034 1869 3034 1293 
Q 3034 710 2643 304 
Q 2253 -102 1645 -102 
Q 1280 -102 890 83 
L 890 -1274 
Q 890 -1357 944 -1405 
Q 998 -1453 1158 -1478 
L 1542 -1542 
L 1542 -1645 
Q 1293 -1619 806 -1619 
Q 403 -1619 77 -1645 
L 77 -1542 
L 346 -1491 
Q 442 -1472 470 -1430 
Q 499 -1389 499 -1267 
L 499 1939 
Q 499 2170 416 2182 
L 102 2234 
L 122 2323 
Q 442 2458 573 2547 
Q 704 2637 794 2784 
L 890 2784 
L 890 2157 
z
M 890 1965 
L 890 563 
Q 890 333 1101 182 
Q 1312 32 1645 32 
Q 2054 32 2323 336 
Q 2592 640 2592 1075 
Q 2592 1632 2355 1945 
Q 2118 2259 1722 2259 
Q 1331 2259 890 1965 
z
" id="STKaiti-70" transform="scale(0.015625)"/>
      </defs>
      <use xlink:href="#STKaiti-53"/>
      <use x="47.899994" xlink:href="#STKaiti-74"/>
      <use x="77.099991" xlink:href="#STKaiti-65"/>
      <use x="118.799988" xlink:href="#STKaiti-70"/>
     </g>
    </g>
   </g>
   <g id="matplotlib.axis_2">
    <g id="ytick_1">
     <g id="line2d_6">
      <defs>
       <path d="M 0 0 
L -3.5 0 
" id="m869d75fde8" style="stroke:#000000;stroke-width:0.8;"/>
      </defs>
      <g>
       <use style="stroke:#000000;stroke-width:0.8;" x="81" xlink:href="#m869d75fde8" y="394.686227"/>
      </g>
     </g>
     <g id="text_7">
      <!-- 0.1 -->
      <g transform="translate(50.85625 401.286227)scale(0.2 -0.2)">
       <defs>
        <path d="M 704 -102 
Q 563 -102 467 -6 
Q 371 90 371 230 
Q 371 371 467 467 
Q 563 563 704 563 
Q 845 563 941 467 
Q 1037 371 1037 230 
Q 1037 90 941 -6 
Q 845 -102 704 -102 
z
" id="STKaiti-2e" transform="scale(0.015625)"/>
        <path d="M 2272 -19 
Q 1939 0 1523 0 
Q 1107 0 774 -19 
L 774 83 
L 1107 141 
Q 1331 186 1331 390 
L 1331 3552 
L 570 3059 
L 480 3181 
Q 922 3469 1542 4064 
L 1754 4064 
L 1754 390 
Q 1754 173 1978 134 
L 2272 83 
L 2272 -19 
z
" id="STKaiti-31" transform="scale(0.015625)"/>
       </defs>
       <use xlink:href="#STKaiti-30"/>
       <use x="46.899994" xlink:href="#STKaiti-2e"/>
       <use x="68.799988" xlink:href="#STKaiti-31"/>
      </g>
     </g>
    </g>
    <g id="ytick_2">
     <g id="line2d_7">
      <g>
       <use style="stroke:#000000;stroke-width:0.8;" x="81" xlink:href="#m869d75fde8" y="340.12035"/>
      </g>
     </g>
     <g id="text_8">
      <!-- 0.2 -->
      <g transform="translate(50.85625 346.72035)scale(0.2 -0.2)">
       <use xlink:href="#STKaiti-30"/>
       <use x="46.899994" xlink:href="#STKaiti-2e"/>
       <use x="68.799988" xlink:href="#STKaiti-32"/>
      </g>
     </g>
    </g>
    <g id="ytick_3">
     <g id="line2d_8">
      <g>
       <use style="stroke:#000000;stroke-width:0.8;" x="81" xlink:href="#m869d75fde8" y="285.554474"/>
      </g>
     </g>
     <g id="text_9">
      <!-- 0.3 -->
      <g transform="translate(50.85625 292.154474)scale(0.2 -0.2)">
       <defs>
        <path d="M 602 3130 
L 486 3194 
Q 672 3635 934 3849 
Q 1197 4064 1594 4064 
Q 1952 4064 2195 3859 
Q 2438 3654 2438 3405 
Q 2438 3155 2268 2931 
Q 2099 2707 1741 2438 
Q 2208 2470 2489 2163 
Q 2771 1856 2771 1376 
Q 2771 755 2329 326 
Q 1888 -102 1203 -102 
Q 762 -102 531 3 
Q 301 109 301 250 
Q 301 314 361 368 
Q 422 422 493 422 
Q 602 422 742 307 
Q 1101 38 1350 38 
Q 1741 38 2038 377 
Q 2336 717 2336 1203 
Q 2336 1613 2134 1878 
Q 1933 2144 1626 2144 
Q 1389 2144 1139 1926 
L 1069 2048 
Q 1197 2163 1350 2278 
Q 2054 2797 2054 3155 
Q 2054 3418 1878 3578 
Q 1702 3738 1440 3738 
Q 1184 3738 957 3581 
Q 730 3424 602 3130 
z
" id="STKaiti-33" transform="scale(0.015625)"/>
       </defs>
       <use xlink:href="#STKaiti-30"/>
       <use x="46.899994" xlink:href="#STKaiti-2e"/>
       <use x="68.799988" xlink:href="#STKaiti-33"/>
      </g>
     </g>
    </g>
    <g id="ytick_4">
     <g id="line2d_9">
      <g>
       <use style="stroke:#000000;stroke-width:0.8;" x="81" xlink:href="#m869d75fde8" y="230.988597"/>
      </g>
     </g>
     <g id="text_10">
      <!-- 0.4 -->
      <g transform="translate(50.85625 237.588597)scale(0.2 -0.2)">
       <use xlink:href="#STKaiti-30"/>
       <use x="46.899994" xlink:href="#STKaiti-2e"/>
       <use x="68.799988" xlink:href="#STKaiti-34"/>
      </g>
     </g>
    </g>
    <g id="ytick_5">
     <g id="line2d_10">
      <g>
       <use style="stroke:#000000;stroke-width:0.8;" x="81" xlink:href="#m869d75fde8" y="176.422721"/>
      </g>
     </g>
     <g id="text_11">
      <!-- 0.5 -->
      <g transform="translate(50.85625 183.022721)scale(0.2 -0.2)">
       <defs>
        <path d="M 2432 3622 
L 1536 3622 
Q 1037 3622 986 3603 
L 902 2432 
Q 1184 2566 1478 2566 
Q 2003 2566 2368 2208 
Q 2733 1850 2733 1274 
Q 2733 634 2281 266 
Q 1830 -102 1254 -102 
Q 934 -102 665 10 
Q 397 122 397 256 
Q 397 320 454 387 
Q 512 454 614 454 
Q 685 454 730 422 
Q 1178 83 1453 83 
Q 1811 83 2086 393 
Q 2362 704 2362 1126 
Q 2362 1574 2083 1872 
Q 1805 2170 1395 2170 
Q 1216 2170 1059 2112 
Q 902 2054 832 1952 
L 723 1952 
L 845 4000 
L 1542 4000 
Q 2022 4000 2176 4013 
Q 2330 4026 2394 4109 
L 2490 4109 
L 2432 3622 
z
" id="STKaiti-35" transform="scale(0.015625)"/>
       </defs>
       <use xlink:href="#STKaiti-30"/>
       <use x="46.899994" xlink:href="#STKaiti-2e"/>
       <use x="68.799988" xlink:href="#STKaiti-35"/>
      </g>
     </g>
    </g>
    <g id="ytick_6">
     <g id="line2d_11">
      <g>
       <use style="stroke:#000000;stroke-width:0.8;" x="81" xlink:href="#m869d75fde8" y="121.856844"/>
      </g>
     </g>
     <g id="text_12">
      <!-- 0.6 -->
      <g transform="translate(50.85625 128.456844)scale(0.2 -0.2)">
       <use xlink:href="#STKaiti-30"/>
       <use x="46.899994" xlink:href="#STKaiti-2e"/>
       <use x="68.799988" xlink:href="#STKaiti-36"/>
      </g>
     </g>
    </g>
    <g id="ytick_7">
     <g id="line2d_12">
      <g>
       <use style="stroke:#000000;stroke-width:0.8;" x="81" xlink:href="#m869d75fde8" y="67.290968"/>
      </g>
     </g>
     <g id="text_13">
      <!-- 0.7 -->
      <g transform="translate(50.85625 73.890968)scale(0.2 -0.2)">
       <defs>
        <path d="M 294 4000 
L 2758 4000 
L 2758 3891 
Q 2541 3507 1981 1929 
Q 1421 352 1363 0 
L 1152 0 
Q 1459 1325 2387 3610 
L 659 3610 
Q 499 3610 486 3526 
L 435 3258 
L 294 3258 
L 294 4000 
z
" id="STKaiti-37" transform="scale(0.015625)"/>
       </defs>
       <use xlink:href="#STKaiti-30"/>
       <use x="46.899994" xlink:href="#STKaiti-2e"/>
       <use x="68.799988" xlink:href="#STKaiti-37"/>
      </g>
     </g>
    </g>
    <g id="text_14">
     <!-- MSE -->
     <g transform="translate(41.715625 274.199687)rotate(-90)scale(0.2 -0.2)">
      <defs>
       <path d="M 5280 -19 
Q 4666 0 4365 0 
Q 3968 0 3450 -19 
L 3450 83 
L 3834 160 
Q 3981 192 4019 256 
Q 4058 320 4058 506 
L 4058 3494 
L 2624 -51 
L 922 3770 
L 922 467 
Q 922 166 1114 147 
L 1702 83 
L 1702 -19 
Q 1318 0 877 0 
Q 550 0 45 -19 
L 45 83 
L 397 147 
Q 640 192 688 253 
Q 736 314 736 467 
L 736 3846 
L 154 3917 
L 154 4019 
Q 262 4000 768 4000 
Q 1197 4000 1357 4019 
L 2778 845 
L 4070 4019 
Q 4384 4000 4698 4000 
Q 5005 4000 5274 4019 
L 5274 3917 
L 4877 3834 
Q 4691 3795 4620 3718 
Q 4550 3642 4550 3456 
L 4550 550 
Q 4550 352 4585 285 
Q 4621 218 4736 192 
L 5280 83 
L 5280 -19 
z
" id="STKaiti-4d" transform="scale(0.015625)"/>
       <path d="M 4051 1037 
Q 3910 448 3891 -19 
Q 3098 0 2022 0 
Q 947 0 154 -19 
L 154 90 
L 614 122 
Q 723 128 764 166 
Q 806 205 806 346 
L 806 3565 
Q 806 3718 771 3785 
Q 736 3853 646 3859 
L 179 3904 
L 179 4019 
Q 698 4000 1901 4000 
Q 3117 4000 3622 4019 
Q 3603 3821 3603 3546 
Q 3603 3334 3616 3130 
L 3533 3130 
Q 3392 3482 3315 3632 
Q 3238 3782 3174 3827 
Q 3110 3872 3002 3872 
L 1517 3872 
Q 1408 3872 1369 3811 
Q 1331 3750 1331 3603 
L 1331 2131 
L 2771 2131 
Q 2880 2131 2931 2166 
Q 2982 2202 3008 2323 
L 3091 2771 
L 3219 2771 
Q 3200 2394 3200 2003 
Q 3200 1619 3219 1235 
L 3142 1235 
L 3002 1734 
Q 2957 1875 2873 1929 
Q 2790 1984 2624 1984 
L 1331 1984 
L 1331 390 
Q 1331 250 1382 195 
Q 1434 141 1600 141 
L 3021 141 
Q 3213 141 3344 201 
Q 3475 262 3612 454 
Q 3750 646 3923 1037 
L 4051 1037 
z
" id="STKaiti-45" transform="scale(0.015625)"/>
      </defs>
      <use xlink:href="#STKaiti-4d"/>
      <use x="83.299988" xlink:href="#STKaiti-53"/>
      <use x="131.199982" xlink:href="#STKaiti-45"/>
     </g>
    </g>
   </g>
   <g id="line2d_13">
    <path clip-path="url(#p894e743586)" d="M 103.827273 78.12 
L 116.166339 385.987029 
L 128.505405 398.915844 
L 140.844472 406.804649 
L 153.183538 406.112559 
L 165.522604 407.662883 
L 177.861671 411.924143 
L 190.200737 415.606898 
L 202.539803 417.305583 
L 214.87887 420.161961 
L 227.217936 419.677109 
L 239.557002 417.561448 
L 251.896069 419.974998 
L 264.235135 423.287809 
L 276.574201 424.355938 
L 288.913268 425.600662 
L 301.252334 421.747633 
L 313.5914 424.713222 
L 325.930467 425.259097 
L 338.269533 424.980114 
L 350.6086 426.176303 
L 362.947666 425.134931 
L 375.286732 424.467143 
L 387.625799 425.85261 
L 399.964865 424.770998 
L 412.303931 427.430347 
L 424.642998 429.122082 
L 436.982064 427.323029 
L 449.32113 428.90398 
L 461.660197 427.964697 
L 473.999263 430.376151 
L 486.338329 428.099091 
L 498.677396 427.049144 
L 511.016462 428.418611 
L 523.355528 430.81297 
L 535.694595 429.693711 
L 548.033661 427.157025 
L 560.372727 430.92 
" style="fill:none;stroke:#1f77b4;stroke-linecap:square;stroke-width:1.5;"/>
    <defs>
     <path d="M -3 3 
L 3 3 
L 3 -3 
L -3 -3 
z
" id="m4c00d7243c" style="stroke:#1f77b4;stroke-linejoin:miter;"/>
    </defs>
    <g clip-path="url(#p894e743586)">
     <use style="fill:#1f77b4;stroke:#1f77b4;stroke-linejoin:miter;" x="103.827273" xlink:href="#m4c00d7243c" y="78.12"/>
     <use style="fill:#1f77b4;stroke:#1f77b4;stroke-linejoin:miter;" x="116.166339" xlink:href="#m4c00d7243c" y="385.987029"/>
     <use style="fill:#1f77b4;stroke:#1f77b4;stroke-linejoin:miter;" x="128.505405" xlink:href="#m4c00d7243c" y="398.915844"/>
     <use style="fill:#1f77b4;stroke:#1f77b4;stroke-linejoin:miter;" x="140.844472" xlink:href="#m4c00d7243c" y="406.804649"/>
     <use style="fill:#1f77b4;stroke:#1f77b4;stroke-linejoin:miter;" x="153.183538" xlink:href="#m4c00d7243c" y="406.112559"/>
     <use style="fill:#1f77b4;stroke:#1f77b4;stroke-linejoin:miter;" x="165.522604" xlink:href="#m4c00d7243c" y="407.662883"/>
     <use style="fill:#1f77b4;stroke:#1f77b4;stroke-linejoin:miter;" x="177.861671" xlink:href="#m4c00d7243c" y="411.924143"/>
     <use style="fill:#1f77b4;stroke:#1f77b4;stroke-linejoin:miter;" x="190.200737" xlink:href="#m4c00d7243c" y="415.606898"/>
     <use style="fill:#1f77b4;stroke:#1f77b4;stroke-linejoin:miter;" x="202.539803" xlink:href="#m4c00d7243c" y="417.305583"/>
     <use style="fill:#1f77b4;stroke:#1f77b4;stroke-linejoin:miter;" x="214.87887" xlink:href="#m4c00d7243c" y="420.161961"/>
     <use style="fill:#1f77b4;stroke:#1f77b4;stroke-linejoin:miter;" x="227.217936" xlink:href="#m4c00d7243c" y="419.677109"/>
     <use style="fill:#1f77b4;stroke:#1f77b4;stroke-linejoin:miter;" x="239.557002" xlink:href="#m4c00d7243c" y="417.561448"/>
     <use style="fill:#1f77b4;stroke:#1f77b4;stroke-linejoin:miter;" x="251.896069" xlink:href="#m4c00d7243c" y="419.974998"/>
     <use style="fill:#1f77b4;stroke:#1f77b4;stroke-linejoin:miter;" x="264.235135" xlink:href="#m4c00d7243c" y="423.287809"/>
     <use style="fill:#1f77b4;stroke:#1f77b4;stroke-linejoin:miter;" x="276.574201" xlink:href="#m4c00d7243c" y="424.355938"/>
     <use style="fill:#1f77b4;stroke:#1f77b4;stroke-linejoin:miter;" x="288.913268" xlink:href="#m4c00d7243c" y="425.600662"/>
     <use style="fill:#1f77b4;stroke:#1f77b4;stroke-linejoin:miter;" x="301.252334" xlink:href="#m4c00d7243c" y="421.747633"/>
     <use style="fill:#1f77b4;stroke:#1f77b4;stroke-linejoin:miter;" x="313.5914" xlink:href="#m4c00d7243c" y="424.713222"/>
     <use style="fill:#1f77b4;stroke:#1f77b4;stroke-linejoin:miter;" x="325.930467" xlink:href="#m4c00d7243c" y="425.259097"/>
     <use style="fill:#1f77b4;stroke:#1f77b4;stroke-linejoin:miter;" x="338.269533" xlink:href="#m4c00d7243c" y="424.980114"/>
     <use style="fill:#1f77b4;stroke:#1f77b4;stroke-linejoin:miter;" x="350.6086" xlink:href="#m4c00d7243c" y="426.176303"/>
     <use style="fill:#1f77b4;stroke:#1f77b4;stroke-linejoin:miter;" x="362.947666" xlink:href="#m4c00d7243c" y="425.134931"/>
     <use style="fill:#1f77b4;stroke:#1f77b4;stroke-linejoin:miter;" x="375.286732" xlink:href="#m4c00d7243c" y="424.467143"/>
     <use style="fill:#1f77b4;stroke:#1f77b4;stroke-linejoin:miter;" x="387.625799" xlink:href="#m4c00d7243c" y="425.85261"/>
     <use style="fill:#1f77b4;stroke:#1f77b4;stroke-linejoin:miter;" x="399.964865" xlink:href="#m4c00d7243c" y="424.770998"/>
     <use style="fill:#1f77b4;stroke:#1f77b4;stroke-linejoin:miter;" x="412.303931" xlink:href="#m4c00d7243c" y="427.430347"/>
     <use style="fill:#1f77b4;stroke:#1f77b4;stroke-linejoin:miter;" x="424.642998" xlink:href="#m4c00d7243c" y="429.122082"/>
     <use style="fill:#1f77b4;stroke:#1f77b4;stroke-linejoin:miter;" x="436.982064" xlink:href="#m4c00d7243c" y="427.323029"/>
     <use style="fill:#1f77b4;stroke:#1f77b4;stroke-linejoin:miter;" x="449.32113" xlink:href="#m4c00d7243c" y="428.90398"/>
     <use style="fill:#1f77b4;stroke:#1f77b4;stroke-linejoin:miter;" x="461.660197" xlink:href="#m4c00d7243c" y="427.964697"/>
     <use style="fill:#1f77b4;stroke:#1f77b4;stroke-linejoin:miter;" x="473.999263" xlink:href="#m4c00d7243c" y="430.376151"/>
     <use style="fill:#1f77b4;stroke:#1f77b4;stroke-linejoin:miter;" x="486.338329" xlink:href="#m4c00d7243c" y="428.099091"/>
     <use style="fill:#1f77b4;stroke:#1f77b4;stroke-linejoin:miter;" x="498.677396" xlink:href="#m4c00d7243c" y="427.049144"/>
     <use style="fill:#1f77b4;stroke:#1f77b4;stroke-linejoin:miter;" x="511.016462" xlink:href="#m4c00d7243c" y="428.418611"/>
     <use style="fill:#1f77b4;stroke:#1f77b4;stroke-linejoin:miter;" x="523.355528" xlink:href="#m4c00d7243c" y="430.81297"/>
     <use style="fill:#1f77b4;stroke:#1f77b4;stroke-linejoin:miter;" x="535.694595" xlink:href="#m4c00d7243c" y="429.693711"/>
     <use style="fill:#1f77b4;stroke:#1f77b4;stroke-linejoin:miter;" x="548.033661" xlink:href="#m4c00d7243c" y="427.157025"/>
     <use style="fill:#1f77b4;stroke:#1f77b4;stroke-linejoin:miter;" x="560.372727" xlink:href="#m4c00d7243c" y="430.92"/>
    </g>
   </g>
   <g id="patch_3">
    <path d="M 81 448.56 
L 81 60.48 
" style="fill:none;stroke:#000000;stroke-linecap:square;stroke-linejoin:miter;stroke-width:0.8;"/>
   </g>
   <g id="patch_4">
    <path d="M 583.2 448.56 
L 583.2 60.48 
" style="fill:none;stroke:#000000;stroke-linecap:square;stroke-linejoin:miter;stroke-width:0.8;"/>
   </g>
   <g id="patch_5">
    <path d="M 81 448.56 
L 583.2 448.56 
" style="fill:none;stroke:#000000;stroke-linecap:square;stroke-linejoin:miter;stroke-width:0.8;"/>
   </g>
   <g id="patch_6">
    <path d="M 81 60.48 
L 583.2 60.48 
" style="fill:none;stroke:#000000;stroke-linecap:square;stroke-linejoin:miter;stroke-width:0.8;"/>
   </g>
   <g id="legend_1">
    <g id="patch_7">
     <path d="M 465.2 105.620625 
L 569.2 105.620625 
Q 573.2 105.620625 573.2 101.620625 
L 573.2 74.48 
Q 573.2 70.48 569.2 70.48 
L 465.2 70.48 
Q 461.2 70.48 461.2 74.48 
L 461.2 101.620625 
Q 461.2 105.620625 465.2 105.620625 
z
" style="fill:#ffffff;opacity:0.8;stroke:#cccccc;stroke-linejoin:miter;"/>
    </g>
    <g id="line2d_14">
     <path d="M 469.2 85.48 
L 509.2 85.48 
" style="fill:none;stroke:#1f77b4;stroke-linecap:square;stroke-width:1.5;"/>
    </g>
    <g id="line2d_15">
     <g>
      <use style="fill:#1f77b4;stroke:#1f77b4;stroke-linejoin:miter;" x="489.2" xlink:href="#m4c00d7243c" y="85.48"/>
     </g>
    </g>
    <g id="text_15">
     <!-- шонч╗Г -->
     <g transform="translate(525.2 92.48)scale(0.2 -0.2)">
      <defs>
       <path d="M 5498 4147 
Q 5498 4083 5459 4016 
Q 5421 3949 5382 3718 
Q 5344 3488 5344 3341 
L 5344 2643 
L 5338 1562 
Q 5338 576 5354 390 
Q 5370 205 5370 -156 
Q 5370 -518 5309 -691 
Q 5248 -864 5181 -864 
Q 5114 -864 5005 -656 
Q 4896 -448 4899 -304 
Q 4902 -160 4973 237 
Q 5030 467 5030 2086 
Q 5030 3706 5011 3974 
Q 4992 4243 4918 4326 
Q 4845 4410 4845 4467 
Q 4845 4525 4934 4525 
Q 5024 4525 5261 4406 
Q 5498 4288 5498 4147 
z
M 1690 4147 
Q 1946 4147 2147 4086 
Q 2349 4026 2419 3894 
Q 2490 3763 2490 3648 
Q 2490 3482 2349 3482 
Q 2240 3482 2096 3590 
Q 1952 3699 1753 3862 
Q 1555 4026 1555 4086 
Q 1555 4147 1690 4147 
z
M 3488 3398 
Q 3488 3347 3462 3264 
Q 3437 3181 3443 2867 
L 3443 2560 
Q 3443 1453 3264 915 
Q 3085 378 2691 51 
Q 2298 -275 2189 -275 
Q 2150 -275 2150 -236 
Q 2150 -198 2234 -128 
Q 2406 26 2707 461 
Q 3008 896 3072 1334 
Q 3136 1773 3136 2377 
Q 3136 2982 3097 3225 
Q 3059 3469 3027 3514 
Q 2950 3642 2950 3712 
Q 2950 3782 3033 3782 
Q 3117 3782 3302 3667 
Q 3488 3552 3488 3398 
z
M 4429 3219 
Q 4429 3174 4397 3126 
Q 4365 3078 4336 2944 
Q 4307 2810 4307 2019 
Q 4307 1229 4310 1177 
Q 4314 1126 4314 960 
Q 4314 794 4285 608 
Q 4256 422 4192 422 
Q 4128 422 4045 592 
Q 3962 762 3962 870 
Q 3962 979 4032 1229 
Q 4051 1299 4051 1993 
Q 4051 2688 4035 2931 
Q 4019 3174 3980 3280 
Q 3942 3386 3942 3443 
Q 3942 3501 4012 3501 
Q 4083 3501 4256 3414 
Q 4429 3328 4429 3219 
z
M 1939 922 
Q 2624 1530 2746 1530 
Q 2784 1530 2784 1488 
Q 2784 1446 2707 1357 
Q 2445 1056 2144 691 
Q 1843 326 1811 262 
Q 1683 19 1606 19 
Q 1530 19 1440 188 
Q 1350 358 1350 457 
Q 1350 557 1440 646 
Q 1530 736 1603 905 
Q 1677 1075 1705 1577 
Q 1734 2080 1734 2272 
Q 1734 2464 1692 2464 
Q 1651 2464 1491 2368 
Q 1120 2157 909 2157 
Q 787 2157 665 2249 
Q 544 2342 544 2387 
Q 544 2445 755 2457 
Q 966 2470 1228 2556 
Q 1491 2643 1587 2739 
Q 1683 2835 1737 2870 
Q 1792 2906 1872 2906 
Q 1952 2906 2141 2858 
Q 2330 2810 2330 2726 
Q 2330 2643 2234 2566 
Q 2138 2490 2086 2326 
Q 2035 2163 1990 1625 
Q 1946 1088 1939 922 
z
" id="STKaiti-8bad" transform="scale(0.015625)"/>
       <path d="M 4570 1805 
Q 4858 1862 5034 1907 
Q 5210 1952 5344 1952 
Q 5613 1952 5737 1843 
Q 5862 1734 5862 1644 
Q 5862 1555 5658 1555 
Q 5606 1555 5430 1571 
Q 5254 1587 4992 1587 
Q 4730 1587 4563 1574 
Q 4589 614 4605 368 
Q 4621 122 4621 38 
Q 4621 -326 4470 -553 
Q 4320 -781 4218 -781 
Q 4154 -781 4096 -685 
Q 3904 -365 3766 -224 
Q 3629 -83 3629 -60 
Q 3629 -38 3670 -38 
Q 3712 -38 3862 -80 
Q 4013 -122 4093 -122 
Q 4173 -122 4214 -48 
Q 4256 26 4281 298 
Q 4307 570 4307 925 
Q 4307 1280 4294 1549 
Q 3482 1434 3251 1318 
Q 3104 1242 3046 1242 
Q 2989 1242 2925 1334 
Q 2861 1427 2861 1485 
Q 2861 1587 2976 1638 
Q 3149 1702 3405 2202 
Q 3251 2214 3164 2262 
Q 3078 2310 3078 2345 
Q 3078 2381 3254 2393 
Q 3430 2406 3507 2419 
Q 3661 2733 3770 3027 
Q 3392 3021 3245 3062 
Q 3098 3104 3098 3152 
Q 3098 3200 3258 3213 
Q 3418 3226 3866 3290 
Q 4160 4128 4160 4285 
Q 4160 4442 4131 4518 
Q 4102 4595 4102 4627 
Q 4102 4710 4211 4710 
Q 4320 4710 4505 4592 
Q 4691 4474 4691 4358 
Q 4691 4294 4634 4237 
Q 4493 4090 4186 3347 
L 5018 3526 
Q 5152 3565 5270 3565 
Q 5389 3565 5517 3497 
Q 5645 3430 5645 3373 
Q 5645 3270 5286 3209 
Q 4928 3149 4070 3053 
L 3770 2445 
Q 4026 2490 4154 2563 
Q 4282 2637 4381 2637 
Q 4480 2637 4605 2569 
Q 4730 2502 4730 2444 
Q 4730 2387 4666 2272 
Q 4602 2157 4570 1805 
z
M 4288 1760 
Q 4262 2144 4249 2221 
Q 4237 2298 4163 2298 
Q 4090 2298 3994 2278 
Q 3898 2259 3648 2227 
Q 3450 1850 3296 1594 
L 4288 1760 
z
M 2163 2797 
Q 2406 3130 2486 3283 
Q 2566 3437 2579 3552 
Q 2592 3667 2665 3667 
Q 2739 3667 2857 3542 
Q 2976 3418 2976 3315 
Q 2976 3213 2867 3136 
Q 2675 3002 1613 1766 
Q 2426 2003 2688 2003 
Q 2810 2003 2810 1952 
Q 2810 1901 2733 1869 
Q 1632 1453 1498 1344 
Q 1427 1286 1347 1286 
Q 1267 1286 1212 1424 
Q 1158 1562 1158 1638 
Q 1158 1715 1254 1766 
Q 1395 1843 1558 2012 
Q 1722 2182 2048 2630 
Q 1498 2630 1235 2528 
Q 1178 2502 1120 2502 
Q 1062 2502 1014 2617 
Q 966 2733 966 2800 
Q 966 2867 1101 2918 
Q 1338 3008 1494 3299 
Q 1651 3590 1769 3833 
Q 1888 4077 1888 4410 
Q 1888 4512 1971 4512 
Q 2054 4512 2259 4381 
Q 2464 4250 2464 4166 
Q 2464 4083 2352 4019 
Q 2240 3955 1446 2861 
Q 1798 2810 2163 2797 
z
M 2816 1011 
Q 2816 960 2682 890 
Q 1485 301 1242 122 
Q 1133 45 1053 45 
Q 973 45 829 211 
Q 685 378 685 451 
Q 685 525 793 525 
Q 902 525 1075 563 
Q 1248 602 1421 666 
Q 1594 730 2032 870 
Q 2470 1011 2563 1033 
Q 2656 1056 2736 1056 
Q 2816 1056 2816 1011 
z
M 3328 979 
Q 3360 979 3398 886 
Q 3437 794 3437 643 
Q 3437 493 3334 265 
Q 3232 38 3113 -86 
Q 2995 -211 2915 -211 
Q 2835 -211 2835 19 
Q 2835 250 2982 435 
Q 3200 704 3277 909 
Q 3302 979 3328 979 
z
M 5958 115 
Q 5958 -154 5837 -154 
Q 5747 -154 5619 19 
L 5229 531 
Q 4979 870 4979 912 
Q 4979 954 5011 954 
Q 5075 954 5369 826 
Q 5664 698 5811 531 
Q 5958 365 5958 115 
z
" id="STKaiti-7ec3" transform="scale(0.015625)"/>
      </defs>
      <use xlink:href="#STKaiti-8bad"/>
      <use x="99.999985" xlink:href="#STKaiti-7ec3"/>
     </g>
    </g>
   </g>
  </g>
 </g>
 <defs>
  <clipPath id="p894e743586">
   <rect height="388.08" width="502.2" x="81" y="60.48"/>
  </clipPath>
 </defs>
</svg>
